<?xml version="1.0" encoding="UTF-8"?>
<svg width="30px" height="30px" viewBox="0 0 30 30" version="1.1" xmlns="http://www.w3.org/2000/svg" xmlns:xlink="http://www.w3.org/1999/xlink">
    <title>color</title>
    <g id="color" stroke="none" stroke-width="1" fill="none" fill-rule="evenodd">
        <g id="Combined-Shape-2" transform="translate(4.488764, 5.019770)" fill="#000000" fill-rule="nonzero">
            <path d="M10.5112359,9.23705556e-14 C14.1858551,9.23705556e-14 17.1647226,2.97886746 17.1647226,6.6534867 C17.1647226,6.87206026 17.1541831,7.08817217 17.1335845,7.30134196 C19.3942699,8.36362917 20.9604601,10.6622846 20.9604601,13.3267433 C20.9604601,17.0013626 17.9815926,19.98023 14.3069734,19.98023 C12.8824456,19.98023 11.5624792,19.5325493 10.4800901,18.7702039 C9.39861556,19.5323341 8.07835698,19.98023 6.6534867,19.98023 C2.97886746,19.98023 9.68114477e-14,17.0013626 9.68114477e-14,13.3267433 C9.68114477e-14,10.6391894 1.59345894,8.3238077 3.88714855,7.27382657 C3.86742221,7.07001847 3.85774921,6.86288221 3.85774921,6.6534867 C3.85774921,2.97886746 6.83661667,9.23705556e-14 10.5112359,9.23705556e-14 Z M4.3882918,9.2614034 L4.30478286,9.308594 C2.92597198,10.1162827 2,11.6133769 2,13.3267433 C2,15.8967931 4.08343696,17.98023 6.6534867,17.98023 C7.51058989,17.98023 8.31357197,17.74851 9.00320429,17.3442987 C8.15591574,16.2276372 7.6534867,14.8358646 7.6534867,13.3267433 C7.6534867,13.1078981 7.66405245,12.8915207 7.68470168,12.6780933 C6.29603993,12.0259447 5.1695421,10.9071888 4.50702684,9.5238339 L4.3882918,9.2614034 Z M16.6229053,9.28957559 C15.9669198,10.8032648 14.770757,12.0227578 13.2779475,12.7062325 C13.297279,12.9097534 13.3069734,13.1171163 13.3069734,13.3267433 C13.3069734,14.8358646 12.8045443,16.2276372 11.9578341,17.3439134 C12.6468881,17.74851 13.4498702,17.98023 14.3069734,17.98023 C16.8770231,17.98023 18.9604601,15.8967931 18.9604601,13.3267433 C18.9604601,11.5998373 18.0197957,10.0926352 16.6229053,9.28957559 Z M9.65535298,13.2524349 L9.6534867,13.3267433 C9.6534867,14.3106311 9.95883,15.2232021 10.4799246,15.9748643 C10.9542023,15.291535 11.2496683,14.4752232 11.2994698,13.5932409 L11.3064973,13.2594876 L11.3064973,13.2594876 C11.045492,13.2910107 10.7802281,13.3069734 10.5112359,13.3069734 C10.2212341,13.3069734 9.93556569,13.2884198 9.65535298,13.2524349 Z M10.4805355,10.6786224 L10.3933416,10.8080809 C10.2937519,10.9625095 10.2030533,11.1232119 10.1219697,11.2894643 C10.2506219,11.3015654 10.3802974,11.3069734 10.5112359,11.3069734 C10.6217208,11.3069734 10.7313065,11.303123 10.839866,11.2955491 C10.7708682,11.1514662 10.6942433,11.0119652 10.6107742,10.8771997 L10.4805355,10.6786224 Z M14.3069734,8.67325665 C13.4494503,8.67325665 12.6461013,8.90520378 11.9562422,9.30978228 C12.2847385,9.74043604 12.5607094,10.2131893 12.7760748,10.7179921 C13.6054525,10.2566122 14.2784682,9.54735667 14.6962396,8.69076571 C14.5675874,8.6786646 14.4379119,8.67325665 14.3069734,8.67325665 Z M6.6534867,8.67325665 C6.5428487,8.67325665 6.43311249,8.67711771 6.32440548,8.68471242 C6.7334508,9.52777909 7.38858104,10.2270905 8.19610625,10.6911156 C8.40991874,10.1958146 8.68174343,9.73249925 9.00315675,9.3088737 C8.31357197,8.90497666 7.51058989,8.67325665 6.6534867,8.67325665 Z M10.5112359,2 C8.01257644,2 5.97387118,3.96929805 5.86253775,6.44047653 L5.85774921,6.6534867 C5.85774921,6.67627796 5.85791305,6.69903095 5.85823963,6.72174456 C6.11990991,6.68917848 6.38483893,6.67325665 6.6534867,6.67325665 C8.07835698,6.67325665 9.39861556,7.12115262 10.4811505,7.88383265 C11.5624792,7.12093735 12.8824456,6.67325665 14.3069734,6.67325665 C14.5969752,6.67325665 14.8826436,6.69181024 15.1628563,6.72779516 L15.1647226,6.6534867 C15.1647226,4.08343696 13.0812856,2 10.5112359,2 Z" id="Shape"></path>
        </g>
    </g>
</svg>