<?xml version="1.0" encoding="UTF-8"?>
<svg width="30px" height="30px" viewBox="0 0 30 30" version="1.1" xmlns="http://www.w3.org/2000/svg" xmlns:xlink="http://www.w3.org/1999/xlink">
    <title>gear</title>
    <g id="gear" stroke="none" stroke-width="1" fill="none" fill-rule="evenodd">
        <g id="Group" transform="translate(3.855160, 3.855160)" fill="#000000" fill-rule="nonzero">
            <path d="M9.00415664,1.20714154 L9.61595546,1.11458754 C10.1190962,1.03847152 10.6297315,1 11.1448397,1 C11.6219876,1 12.0953251,1.0330102 12.5624591,1.09838615 L13.1951128,1.18692677 L13.8212455,3.24897807 C13.983683,3.30402235 14.144288,3.36407382 14.3028619,3.42903688 C14.4613452,3.49396277 14.6176788,3.56374549 14.7716602,3.63826253 L16.7176736,2.64367553 L17.2167808,3.01708209 C17.9897188,3.59535487 18.6773348,4.28128246 19.2575145,5.05279016 L19.6407214,5.56236868 L18.6252106,7.46435467 C18.7922241,7.80323009 18.9360729,8.15341806 19.055579,8.51275005 L21.1192754,9.17922948 L21.2019722,9.80575918 C21.2602655,10.247403 21.2896795,10.6944324 21.2896795,11.1448397 C21.2896795,11.6556673 21.2518447,12.1620997 21.1769799,12.6611909 L21.0832392,13.28612 L19.0078571,13.9162672 C18.8820256,14.273278 18.7320184,14.6207863 18.5590535,14.9566177 L19.5409551,16.8759842 L19.1488651,17.3787594 C18.5546375,18.1407347 17.8543325,18.8151244 17.0704089,19.380082 L16.5643966,19.7447547 L14.6376172,18.7148161 C14.3279433,18.8579099 14.0094511,18.9819036 13.6837302,19.0859637 L13.0213911,21.1367329 L12.3874335,21.2142375 C11.9771846,21.2643926 11.5624549,21.2896795 11.1448397,21.2896795 C10.569646,21.2896795 10.0000921,21.2417092 9.44040887,21.1469562 L8.83025977,21.0436594 L8.19198024,18.9415202 C7.91915534,18.8381443 7.65222186,18.7205156 7.39217824,18.5892013 L5.46591196,19.5761125 L4.96388957,19.189894 C4.16389748,18.5744398 3.45887627,17.8427163 2.87371663,17.0203021 L2.5146199,16.5156087 L3.54866459,14.5803474 C3.44287243,14.3467582 3.34789354,14.1082253 3.26408779,13.8654247 L1.18779205,13.195271 L1.10025025,12.575715 C1.03363825,12.1042847 1,11.6265053 1,11.1448397 C1,10.6038609 1.04243297,10.0678394 1.12632805,9.54028408 L1.22460735,8.92227685 L3.31230998,8.28839416 C3.40038542,8.04693972 3.49957928,7.80992348 3.60951833,7.57802573 L2.60968197,5.62456906 L2.97736412,5.1263506 C3.57601622,4.31516212 4.29260892,3.59644429 5.10201254,2.99538145 L5.61037081,2.61787477 L7.52036439,3.63712667 C7.78347115,3.50990134 8.05329825,3.39656612 8.32884043,3.29767529 L9.00415664,1.20714154 Z M11.6603393,3.01601517 C11.4893422,3.00535558 11.317457,3 11.1448397,3 C10.9350908,3 10.7264269,3.00790748 10.5191301,3.02362867 L9.91086472,4.90659724 L9.39824864,5.05325916 C8.91354688,5.19193465 8.44851499,5.38815828 8.01182317,5.6371899 L7.53247581,5.91054662 L5.80913456,4.99090017 C5.50781646,5.2524085 5.2258776,5.53566973 4.9657806,5.83821558 L5.86697229,7.59894264 L5.60680298,8.06571939 C5.37633788,8.47920302 5.19290916,8.91747407 5.06045336,9.37329853 L4.90923795,9.89368108 L3.02792218,10.4648992 C3.00934793,10.6900174 3,10.9167854 3,11.1448397 C3,11.3255058 3.00586667,11.5053696 3.01754077,11.684252 L4.88873287,12.2882057 L5.03086155,12.8111342 C5.1553637,13.2692101 5.33107109,13.7104224 5.55418885,14.1276052 L5.80629618,14.5989924 L4.87433026,16.3432087 C5.12965433,16.6508075 5.40725362,16.9394299 5.70468459,17.2065614 L7.44286333,16.3160158 L7.91770743,16.5977399 C8.34965876,16.8540158 8.81071883,17.0580864 9.29218257,17.2050608 L9.80216382,17.3607407 L10.37703,19.2540313 C10.6309658,19.2777375 10.8870783,19.2896795 11.1448397,19.2896795 C11.2699387,19.2896795 11.3946556,19.2868666 11.5189317,19.2812602 L12.1164927,17.4310606 L12.6585722,17.2982349 C13.1881831,17.1684644 13.696693,16.9707728 14.1733263,16.7107957 L14.6473738,16.452229 L16.3845399,17.3808119 C16.6618778,17.1475097 16.9235248,16.8959857 17.1676063,16.6280607 L16.28128,14.8955195 L16.5697758,14.4186471 C16.8666185,13.9279776 17.0955963,13.3990813 17.2495506,12.8448595 L17.396649,12.3153188 L19.2677892,11.7471855 C19.2823549,11.5475756 19.2896795,11.34671 19.2896795,11.1448397 C19.2896795,10.9912695 19.2854406,10.8382769 19.2769988,10.6859715 L17.4161966,10.0850176 L17.2785157,9.55281075 C17.1343886,8.99568599 16.9148423,8.46287306 16.6267841,7.96717066 L16.3467864,7.48533902 L17.2633809,5.76861679 C17.0244591,5.49694657 16.7677382,5.241304 16.4950585,5.00352613 L14.7404636,5.90028114 L14.2714489,5.6335409 C14.037051,5.50023303 13.7943381,5.38203326 13.5446775,5.27975467 C13.2911088,5.17587506 13.0307428,5.08856886 12.7649318,5.0184928 L12.2251749,4.87619607 L11.6603393,3.01601517 Z" id="Combined-Shape" transform="translate(11.144840, 11.144840) rotate(-1.000000) translate(-11.144840, -11.144840) "></path>
            <path d="M11.1448397,15.49199 C13.5457045,15.49199 15.49199,13.5457045 15.49199,11.1448397 C15.49199,8.74397494 13.5457045,6.79768948 11.1448397,6.79768948 C8.74397494,6.79768948 6.79768948,8.74397494 6.79768948,11.1448397 C6.79768948,13.5457045 8.74397494,15.49199 11.1448397,15.49199 Z M11.1448397,13.49199 C9.84854444,13.49199 8.79768948,12.441135 8.79768948,11.1448397 C8.79768948,9.84854444 9.84854444,8.79768948 11.1448397,8.79768948 C12.441135,8.79768948 13.49199,9.84854444 13.49199,11.1448397 C13.49199,12.441135 12.441135,13.49199 11.1448397,13.49199 Z" id="Oval"></path>
        </g>
    </g>
</svg>