<?xml version="1.0" encoding="UTF-8"?>
<svg width="30px" height="30px" viewBox="0 0 30 30" version="1.1" xmlns="http://www.w3.org/2000/svg" xmlns:xlink="http://www.w3.org/1999/xlink">
    <title>head</title>
    <g id="head" stroke="none" stroke-width="1" fill="none" fill-rule="evenodd">
        <g id="Combined-Shape-2" transform="translate(5.500168, 5.000000)" fill="#000000" fill-rule="nonzero">
            <path d="M16.999,18 L18.9996634,18 L18.9996634,20 L12.9996634,20 L12.9996634,18 L14.999,18 L14.999,11 L4,11 L4,18 L6,18 L6,20 L-1.77635684e-15,20 L-1.77635684e-15,18 L2,18 L2,11 L2,11 L2,9 L2,9 L2,2 L-1.77635684e-15,2 L-1.77635684e-15,0 L6,0 L6,2 L4,2 L4,9 L14.999,9 L14.999,2 L12.9996634,2 L12.9996634,0 L18.9996634,0 L18.9996634,2 L16.999,2 L16.999,18 Z" id="Combined-Shape"></path>
        </g>
    </g>
</svg>