<?xml version="1.0" encoding="UTF-8"?>
<svg width="30px" height="30px" viewBox="0 0 30 30" version="1.1" xmlns="http://www.w3.org/2000/svg" xmlns:xlink="http://www.w3.org/1999/xlink">
    <title>jpg</title>
    <g id="jpg" stroke="none" stroke-width="1" fill="none" fill-rule="evenodd">
        <g id="Group-3" transform="translate(3.049383, 9.242796)" fill="#000000" fill-rule="nonzero">
            <g id="Group-2">
                <path d="M10.2544538,2.37167496 L11.685047,2.37256366 C12.9116309,2.37256385 13.6467808,3.21079034 13.6467808,4.37371504 C13.6467808,5.53663975 12.9116309,6.37486623 11.6856682,6.37486623 C9.98804601,6.37486623 9.98804601,6.37486623 9.39623519,6.37486623 L9.33629023,6.37486623 L9.33632352,8.37486623 L11.6856682,8.37486623 C14.0788431,8.37486623 15.6467808,6.58708542 15.6467808,4.37371504 C15.6467808,2.16034466 14.0788431,0.372563854 11.6856682,0.372563854 L9.25507498,0.371053747 L8.25445377,0.370432149 L8.25445377,13.7619678 L10.2544538,13.7619678 L10.2544538,6.37486623 C9.81812906,6.37486623 9.78768841,6.37486623 9.4955565,6.37486623 L9.33629023,6.37486623 C9.3376419,8.37486623 9.3376419,8.37486623 9.34331316,8.37486623 L11.4242363,8.37486623 L11.4242363,6.37486623 L10.4242363,6.37486623 C10.3614479,6.37486623 10.3052021,6.37486623 10.2544538,6.37486623 L10.2544538,2.37167496 Z" id="Path-11"></path>
                <path d="M21.9165473,9.63268149 C21.9165473,11.0713088 21.092983,11.8918759 20.0089036,11.8918759 C18.9248242,11.8918759 18.1012599,11.0713088 18.1012599,9.63268149 L18.1012599,3.9182584 C18.1012599,2.71420608 18.9018192,2 20.0089036,2 C21.115988,2 21.9165473,2.71420608 21.9165473,3.9182584 L21.9165473,4.9182584 L23.9165473,4.9182584 L23.9165473,3.9182584 C23.9165473,1.55555046 22.1729184,0 20.0089036,0 C17.8448889,0 16.1012599,1.55555046 16.1012599,3.9182584 L16.1012599,9.63268149 C16.1012599,12.177514 17.8218838,13.8918759 20.0089036,13.8918759 C22.1959234,13.8918759 23.9165473,12.177514 23.9165473,9.63268149 L23.9165473,7.91828105 L22.9165473,6.91828105 L19.8556523,6.91828105 L19.8556523,8.91828105 L21.9165473,8.91828105 L21.9165473,9.63268149 Z" id="Path-13"></path>
                <path d="M1.13686838e-13,10.0851748 C1.13686838e-13,12.3259623 1.65432462,13.7807429 3.70540126,13.7617947 C5.74020766,13.7429969 7.39232703,12.2799806 7.39232703,10.0851748 L7.39232703,0.371053554 L5.39232703,0.371053554 L5.39232703,10.0851748 C5.39232703,11.1203329 4.67819744,11.7527226 3.68692576,11.7618801 C2.69781107,11.7710176 2,11.1573763 2,10.0851748 L2,9.08517478 L1.13686838e-13,9.08517478 L1.13686838e-13,10.0851748 Z" id="Path-14"></path>
            </g>
        </g>
    </g>
</svg>