<?xml version="1.0" encoding="UTF-8"?>
<svg width="30px" height="30px" viewBox="0 0 30 30" version="1.1" xmlns="http://www.w3.org/2000/svg" xmlns:xlink="http://www.w3.org/1999/xlink">
    <title>layer</title>
    <g id="layer" stroke="none" stroke-width="1" fill="none" fill-rule="evenodd">
        <g id="Combined-Shape-2" transform="translate(3.109680, 4.755176)" fill="#000000" fill-rule="nonzero">
            <path d="M12.3340482,-2.48689958e-14 L23.7806395,5.66770617 L23.7806395,7.46002871 L18.169,10.238 L23.7806395,13.0170812 L23.7806395,14.8094038 L12.3340482,20.4771099 L11.4465912,20.4771099 L-7.48290319e-14,14.8094038 L-9.51461132e-14,13.0170812 L5.611,10.238 L-7.7826634e-14,7.46002871 L-9.80326931e-14,5.66770617 L11.4465912,1.77635684e-15 L12.3340482,-2.48689958e-14 Z M15.915,11.354 L12.3340482,13.1277349 L11.4465912,13.1277349 L7.865,11.354 L2.69735882,13.9132425 L11.8903197,18.4650781 L21.0832807,13.9132425 L15.915,11.354 Z M11.8903197,2.01203185 L2.69735882,6.56386744 L11.8903197,11.115703 L21.0832807,6.56386744 L11.8903197,2.01203185 Z" id="Combined-Shape"></path>
        </g>
    </g>
</svg>