<?xml version="1.0" encoding="UTF-8"?>
<svg width="30px" height="30px" viewBox="0 0 30 30" version="1.1" xmlns="http://www.w3.org/2000/svg" xmlns:xlink="http://www.w3.org/1999/xlink">
    <title>link</title>
    <g id="link" stroke="none" stroke-width="1" fill="none" fill-rule="evenodd">
        <g id="Group" transform="translate(5.000000, 5.000000)" fill="#000000" fill-rule="nonzero">
            <path d="M7.49972306,6.21257875 C5.56687939,6.21257875 4,7.77945814 4,9.71230181 L4,14.8947158 C4,16.8275595 5.56687939,18.3944389 7.49972306,18.3944389 C9.43256674,18.3944389 10.9994461,16.8275595 10.9994461,14.8947158 L10.9994461,12.3035088 L8.99944612,12.3035088 L8.99944612,14.8947158 C8.99944612,15.72299 8.32799724,16.3944389 7.49972306,16.3944389 C6.67144889,16.3944389 6,15.72299 6,14.8947158 L6,9.71230181 C6,8.88402764 6.67144889,8.21257875 7.49972306,8.21257875 L7.49972306,6.21257875 Z" id="Path-20" transform="translate(7.499723, 12.303509) rotate(-317.000000) translate(-7.499723, -12.303509) "></path>
            <path d="M12.3605314,1 C10.4276877,1 8.86080832,2.56687939 8.86080832,4.49972306 L8.86080832,9.68213704 C8.86080832,11.6149807 10.4276877,13.1818601 12.3605314,13.1818601 C14.2933751,13.1818601 15.8602544,11.6149807 15.8602544,9.68213704 L15.8602544,7.09093005 L13.8602544,7.09093005 L13.8602544,9.68213704 C13.8602544,10.5104112 13.1888056,11.1818601 12.3605314,11.1818601 C11.5322572,11.1818601 10.8608083,10.5104112 10.8608083,9.68213704 L10.8608083,4.49972306 C10.8608083,3.67144889 11.5322572,3 12.3605314,3 L12.3605314,1 Z" id="Path-20-Copy" transform="translate(12.360531, 7.090930) rotate(-497.000000) translate(-12.360531, -7.090930) "></path>
        </g>
    </g>
</svg>