<?xml version="1.0" encoding="UTF-8"?>
<svg width="30px" height="30px" viewBox="0 0 30 30" version="1.1" xmlns="http://www.w3.org/2000/svg" xmlns:xlink="http://www.w3.org/1999/xlink">
    <title>list</title>
    <g id="list" stroke="none" stroke-width="1" fill="none" fill-rule="evenodd">
        <path d="M25,18.3643312 L25,20.3643312 L9,20.3643312 L9,18.3643312 L25,18.3643312 Z M6,18.3643312 C6.55228475,18.3643312 7,18.8120465 7,19.3643312 C7,19.916616 6.55228475,20.3643312 6,20.3643312 C5.44771525,20.3643312 5,19.916616 5,19.3643312 C5,18.8120465 5.44771525,18.3643312 6,18.3643312 Z M21,13.6821656 L21,15.6821656 L9,15.6821656 L9,13.6821656 L21,13.6821656 Z M6,13.6821656 C6.55228475,13.6821656 7,14.1298809 7,14.6821656 C7,15.2344504 6.55228475,15.6821656 6,15.6821656 C5.44771525,15.6821656 5,15.2344504 5,14.6821656 C5,14.1298809 5.44771525,13.6821656 6,13.6821656 Z M25,9 L25,11 L9,11 L9,9 L25,9 Z M6,9 C6.55228475,9 7,9.44771525 7,10 C7,10.5522847 6.55228475,11 6,11 C5.44771525,11 5,10.5522847 5,10 C5,9.44771525 5.44771525,9 6,9 Z" id="Shape" fill="#000000" fill-rule="nonzero"></path>
    </g>
</svg>