<?xml version="1.0" encoding="UTF-8"?>
<svg width="30px" height="30px" viewBox="0 0 30 30" version="1.1" xmlns="http://www.w3.org/2000/svg" xmlns:xlink="http://www.w3.org/1999/xlink">
    <title>locator</title>
    <g id="locator" stroke="none" stroke-width="1" fill="none" fill-rule="evenodd">
        <path d="M20.4175608,4.16378563 C24.4216301,6.19286076 27,10.3035995 27,14.873913 C27,19.4285845 24.439299,23.5276126 20.4564824,25.5642274 L20.4564824,25.5642274 L19.5459224,23.7835308 C22.866374,22.0856165 25,18.6702265 25,14.873913 C25,11.0645792 22.8516322,7.63940003 19.5135083,5.94779491 L19.5135083,5.94779491 Z M9.54351763,4.10799536 L10.4540776,5.88869202 C7.13362601,7.58660626 5,11.0019963 5,14.7983098 C5,18.6076436 7.14836783,22.0328228 10.4864917,23.7244279 L10.4864917,23.7244279 L9.58243921,25.5084372 C5.57836992,23.479362 3,19.3686232 3,14.7983098 C3,10.2436383 5.56070105,6.14461022 9.54351763,4.10799536 L9.54351763,4.10799536 Z M15,8 C18.7949008,8 21.8712758,11.076375 21.8712758,14.8712758 C21.8712758,18.6661766 18.7949008,21.7425516 15,21.7425516 C11.2050992,21.7425516 8.12872421,18.6661766 8.12872421,14.8712758 C8.12872421,11.076375 11.2050992,8 15,8 Z M15,10 C12.3096687,10 10.1287242,12.1809445 10.1287242,14.8712758 C10.1287242,17.5616071 12.3096687,19.7425516 15,19.7425516 C17.6903313,19.7425516 19.8712758,17.5616071 19.8712758,14.8712758 C19.8712758,12.1809445 17.6903313,10 15,10 Z" id="Combined-Shape" fill="#000000" fill-rule="nonzero"></path>
    </g>
</svg>