<?xml version="1.0" encoding="UTF-8"?>
<svg width="30px" height="30px" viewBox="0 0 30 30" version="1.1" xmlns="http://www.w3.org/2000/svg" xmlns:xlink="http://www.w3.org/1999/xlink">
    <title>media</title>
    <g id="media" stroke="none" stroke-width="1" fill="none" fill-rule="evenodd">
        <g id="Combined-Shape-2" transform="translate(3.005641, 5.000000)" fill="#000000" fill-rule="nonzero">
            <path d="M22.9943592,0 L23.9943592,1 L23.9943592,11 L22.9943592,12 L17.997,12 L17.9971796,15 L16.9971796,16 L12,16 L12,19 L11,20 L1,20 L1.77635684e-15,19 L1.77635684e-15,9 L1,8 L5.997,8 L5.99717959,5 L6.99717959,4 L11.994,4 L11.9943592,1 L12.9943592,0 L22.9943592,0 Z M5.997,10 L2,10 L2,18 L10,18 L10,16 L6.99717959,16 L5.99717959,15 L5.997,10 Z M10,10 L7.997,10 L7.99717959,14 L10,14 L10,10 Z M12,11.006 L12,14 L15.9971796,14 L15.997,12 L12.9943592,12 L12,11.006 Z M15.9971796,6 L13.994,6 L13.9943592,10 L15.997,10 L15.9971796,6 Z M21.9943592,2 L13.9943592,2 L13.994,4 L16.9971796,4 L17.9971796,5 L17.997,10 L21.9943592,10 L21.9943592,2 Z M11.994,6 L7.99717959,6 L7.997,8 L11,8 L11.994,8.994 L11.994,6 Z" id="Combined-Shape"></path>
        </g>
    </g>
</svg>