<?xml version="1.0" encoding="UTF-8"?>
<svg width="30px" height="30px" viewBox="0 0 30 30" version="1.1" xmlns="http://www.w3.org/2000/svg" xmlns:xlink="http://www.w3.org/1999/xlink">
    <title>pages</title>
    <g id="pages" stroke="none" stroke-width="1" fill="none" fill-rule="evenodd">
        <path d="M21.8780621,3 L27,8.28671036 L27,19 L21,19 L21,22 L15,22 L15,25 L3,25 L3,9 L9,9 L9,6 L15,6 L15,3 L21.8780621,3 Z M8,10.999 L5,11 L5,23 L13,23 L12.9996289,21.2537164 C12.9784406,21.1726938 12.9671603,21.0876642 12.9671603,21 C12.9671603,20.9123358 12.9784406,20.8273062 12.9996289,20.7462836 L13,16 L9,16 L8,15 L8,10.999 Z M13.999,8 L11,8 L11,10.158 L15,14.2867104 L15,20 L19,20 L19,13 L15,13 L14,12 L13.999,8 Z M20,5 L17,5 L17,7.158 L21,11.2867104 L21,17 L25,17 L25,10 L21,10 L20,9 L20,5 Z M10,11.999 L10,14 L11.938,14 L10,11.999 Z M15.999,8.999 L16,11 L17.938,11 L15.999,8.999 Z M22,6 L22,8 L23.938,8 L22,6 Z" id="Combined-Shape" fill="#000000" fill-rule="nonzero"></path>
    </g>
</svg>