<?xml version="1.0" encoding="UTF-8"?>
<svg width="30px" height="30px" viewBox="0 0 30 30" version="1.1" xmlns="http://www.w3.org/2000/svg" xmlns:xlink="http://www.w3.org/1999/xlink">
    <title>paperclip</title>
    <g id="paperclip" stroke="none" stroke-width="1" fill="none" fill-rule="evenodd">
        <g id="Path-17" transform="translate(2.738227, 3.185407)" fill="#000000" fill-rule="nonzero">
            <path d="M11.9688634,17.8979891 L11.9688634,7.01068408 C11.9688634,6.67781236 12.2387093,6.40796652 12.571581,6.40796652 C12.9044527,6.40796652 13.1742985,6.67781236 13.1742985,7.01068408 L13.1742985,20.4948603 C13.1742985,21.647561 12.23985,22.5820095 11.0871493,22.5820095 C9.93444856,22.5820095 9,21.647561 9,20.4948603 L9,6.48623725 C9,4.56084158 10.5608416,3 12.4862372,3 C14.4116329,3 15.9724745,4.56084158 15.9724745,6.48623725 L15.9724745,17.8979891 L17.9724745,17.8979891 L17.9724745,6.48623725 C17.9724745,3.45627208 15.5162024,1 12.4862372,1 C9.45627208,1 7,3.45627208 7,6.48623725 L7,20.4948603 C7,22.7521305 8.82987906,24.5820095 11.0871493,24.5820095 C13.3444195,24.5820095 15.1742985,22.7521305 15.1742985,20.4948603 L15.1742985,7.01068408 C15.1742985,5.57324286 14.0090222,4.40796652 12.571581,4.40796652 C11.1341398,4.40796652 9.96886341,5.57324286 9.96886341,7.01068408 L9.96886341,17.8979891 L11.9688634,17.8979891 Z" id="Path-15" transform="translate(12.486237, 12.791005) rotate(40.000000) translate(-12.486237, -12.791005) "></path>
        </g>
    </g>
</svg>