<?xml version="1.0" encoding="UTF-8"?>
<svg width="30px" height="30px" viewBox="0 0 30 30" version="1.1" xmlns="http://www.w3.org/2000/svg" xmlns:xlink="http://www.w3.org/1999/xlink">
    <title>png</title>
    <g id="png" stroke="none" stroke-width="1" fill="none" fill-rule="evenodd">
        <g id="Group-3" transform="translate(3.000000, 9.253189)" fill="#000000" fill-rule="nonzero">
            <g id="Group-2">
                <path d="M2,2.37167496 L3.43059323,2.37256366 C4.65717713,2.37256385 5.39232703,3.21079034 5.39232703,4.37371504 C5.39232703,5.53663975 4.65717713,6.37486623 3.43121444,6.37486623 C1.73359224,6.37486623 1.73359224,6.37486623 1.14178142,6.37486623 L1.08183646,6.37486623 L1.08186975,8.37486623 L3.43121444,8.37486623 C5.82438936,8.37486623 7.39232703,6.58708542 7.39232703,4.37371504 C7.39232703,2.16034466 5.82438936,0.372563854 3.43121444,0.372563854 L1.00062121,0.371053747 L1.13686838e-13,0.370432149 L1.13686838e-13,13.7619678 L2,13.7619678 L2,6.37486623 C1.56367529,6.37486623 1.53323464,6.37486623 1.24110273,6.37486623 L1.08183646,6.37486623 C1.08318813,8.37486623 1.08318813,8.37486623 1.08885938,8.37486623 L3.16978258,8.37486623 L3.16978258,6.37486623 L2.16978258,6.37486623 C2.10699412,6.37486623 2.05074834,6.37486623 2,6.37486623 L2,2.37167496 Z" id="Path-11"></path>
                <polygon id="Path-12" points="13.1594239 13.7619678 15.392327 13.7619678 15.392327 0.371053554 13.392327 0.371053554 13.392327 8.72807956 10.228731 0.371053554 8 0.371053554 8 13.7619678 10 13.7619678 10 5.4159631"></polygon>
                <path d="M21.96593,9.63268149 C21.96593,11.0713088 21.1423657,11.8918759 20.0582863,11.8918759 C18.974207,11.8918759 18.1506426,11.0713088 18.1506426,9.63268149 L18.1506426,3.9182584 C18.1506426,2.71420608 18.9512019,2 20.0582863,2 C21.1653707,2 21.96593,2.71420608 21.96593,3.9182584 L21.96593,4.9182584 L23.96593,4.9182584 L23.96593,3.9182584 C23.96593,1.55555046 22.2223011,0 20.0582863,0 C17.8942716,0 16.1506426,1.55555046 16.1506426,3.9182584 L16.1506426,9.63268149 C16.1506426,12.177514 17.8712665,13.8918759 20.0582863,13.8918759 C22.2453061,13.8918759 23.96593,12.177514 23.96593,9.63268149 L23.96593,7.91828105 L22.96593,6.91828105 L19.905035,6.91828105 L19.905035,8.91828105 L21.96593,8.91828105 L21.96593,9.63268149 Z" id="Path-13"></path>
            </g>
        </g>
    </g>
</svg>