<?xml version="1.0" encoding="UTF-8"?>
<svg width="30px" height="30px" viewBox="0 0 30 30" version="1.1" xmlns="http://www.w3.org/2000/svg" xmlns:xlink="http://www.w3.org/1999/xlink">
    <title>question</title>
    <g id="question" stroke="none" stroke-width="1" fill="none" fill-rule="evenodd">
        <circle id="Oval" fill="#000000" cx="15" cy="15" r="12"></circle>
        <g id="Group" transform="translate(9.070447, 5.682475)" fill="#FFFFFF">
            <path d="M2.94425357,5.56030236 L3.04475368,5.14359758 C3.40714127,3.64102568 4.91898966,2.71672367 6.42156156,3.07911126 C6.58460231,3.11843313 6.74377837,3.17233122 6.89716823,3.24015487 L6.98237396,3.27782987 C8.28047978,3.85180702 8.86750205,5.36943011 8.29352491,6.66753593 C8.2171492,6.84026711 8.12196557,7.00405286 8.00969846,7.15592585 L6.48340815,9.2206649 C5.61924329,10.3896921 5.1883153,11.8227578 5.26439899,13.2745211 L7.26165806,13.1698492 C7.2098519,12.1813287 7.50327517,11.2055397 8.09169385,10.4095371 L9.61798416,8.34479805 C9.81762056,8.07473339 9.98687868,7.78348513 10.122692,7.47632988 C11.1433537,5.16800295 10.0994948,2.46932446 7.79116791,1.44866275 L7.70596217,1.41098774 C7.44295547,1.29469535 7.17002755,1.20228012 6.89047314,1.13485769 C4.31411964,0.513497386 1.72186042,2.0983325 1.10050011,4.674686 L1,5.09139078 L2.94425357,5.56030236 Z" id="Path-26" fill-rule="nonzero" transform="translate(5.757093, 7.137261) rotate(3.000000) translate(-5.757093, -7.137261) "></path>
            <circle id="Oval" cx="5.92955282" cy="16.298482" r="1"></circle>
        </g>
    </g>
</svg>