<?xml version="1.0" encoding="UTF-8"?>
<svg width="30px" height="30px" viewBox="0 0 30 30" version="1.1" xmlns="http://www.w3.org/2000/svg" xmlns:xlink="http://www.w3.org/1999/xlink">
    <title>rhcp</title>
    <g id="rhcp" stroke="none" stroke-width="1" fill="none" fill-rule="evenodd">
        <path d="M23.0130794,7 L24.0130794,8 L24.0130794,24 L23.0130794,25 L7.01307944,25 L6.01307944,24 L6.01307944,8 L7.01307944,7 L23.0130794,7 Z M22.0130794,9 L8.01307944,9 L8.01307944,23 L22.0130794,23 L22.0130794,9 Z M16,10.5 L16,13.584 L18.1819805,11.4038059 L19.5961941,12.8180195 L17.414,15 L20.5,15 L20.5,17 L17.415,17 L19.5961941,19.1819805 L18.1819805,20.5961941 L16,18.415 L16,21.5 L14,21.5 L14,18.414 L11.8180195,20.5961941 L10.4038059,19.1819805 L12.584,17 L9.5,17 L9.5,15 L12.585,15 L10.4038059,12.8180195 L11.8180195,11.4038059 L14,13.585 L14,10.5 L16,10.5 Z" id="Shape" fill="#000000" fill-rule="nonzero"></path>
    </g>
</svg>