<?xml version="1.0" encoding="UTF-8"?>
<svg width="30px" height="30px" viewBox="0 0 30 30" version="1.1" xmlns="http://www.w3.org/2000/svg" xmlns:xlink="http://www.w3.org/1999/xlink">
    <title>star</title>
    <g id="star" stroke="none" stroke-width="1" fill="none" fill-rule="evenodd">
        <g id="Star-2" transform="translate(3.107808, 4.046342)" fill="#000000" fill-rule="nonzero">
            <path d="M5.41681322,22.3824933 L3.99549211,21.3430251 L4.96715492,14.3172981 L3.55271368e-15,9.19578146 L0.542484351,7.51507043 L7.61665133,6.25503777 L11.0134066,1.42108547e-14 L12.7709764,1.42108547e-14 L16.1677317,6.25503777 L23.2418987,7.51507043 L23.784383,9.19578146 L18.8172281,14.3172981 L19.7888909,21.3430251 L18.3675698,22.3824933 L11.8921915,19.2917955 L5.41681322,22.3824933 Z M11.4614419,17.2812557 L12.3229411,17.2812557 L17.5533746,19.7777415 L16.769271,14.1081842 L17.0420007,13.2749813 L21.0386654,9.15411423 L15.3432418,8.13965983 L14.6398144,7.6323731 L11.8921915,2.57269605 L9.14456864,7.6323731 L8.44114125,8.13965983 L2.74571762,9.15411423 L6.74238235,13.2749813 L7.015112,14.1081842 L6.23100838,19.7777415 L11.4614419,17.2812557 Z" id="Star"></path>
        </g>
    </g>
</svg>