<?xml version="1.0" encoding="UTF-8"?>
<svg width="30px" height="30px" viewBox="0 0 30 30" version="1.1" xmlns="http://www.w3.org/2000/svg" xmlns:xlink="http://www.w3.org/1999/xlink">
    <title>symbol</title>
    <g id="symbol" stroke="none" stroke-width="1" fill="none" fill-rule="evenodd">
        <path d="M23,23 L23,25 L7,25 L7,23 L23,23 Z M15.1118805,6.05400298 C17.734635,6.01682437 19.8909368,8.11284777 19.9281154,10.7356023 L19.9285925,18.8210307 C19.9285925,19.3338665 20.3146327,19.7565378 20.8119714,19.8143029 L20.9285925,19.8210307 L20.9426823,19.8209314 L22.2536094,19.8024589 L22.281789,21.8022604 L20.9708618,21.8207329 L20.9285925,21.8210307 C19.446144,21.8210307 18.2148361,20.7457699 17.9720394,19.3326191 C15.8302484,21.4427371 12.7047638,22.5380342 10.3920667,21.2594035 C7.6140001,19.7234819 7.71478437,15.4569502 10.1579225,13.5915438 C11.5598025,12.521168 14.1279026,11.8833891 17.9288337,11.6000871 L17.9283163,10.7639502 C17.907591,9.30188746 16.749306,8.12257749 15.3077682,8.05644532 L15.1402284,8.05380207 L14.3445453,8.0650812 C12.8569084,8.08616906 11.4635634,8.77914607 10.549156,9.94164429 L10.4012553,10.1397067 L9.82321195,10.9557128 L8.19119984,9.79962605 L8.7692432,8.98362 C9.99299834,7.25608246 11.9369111,6.18820586 14.0409019,6.07465661 L14.3161973,6.06528212 L15.1118805,6.05400298 Z M17.9278572,13.6061991 C14.5777041,13.8682918 12.3713306,14.4178706 11.3716417,15.1811619 C10.0010527,16.2276461 9.9420533,18.7252843 11.3597643,19.5091002 C13.1864697,20.5190387 16.4481847,18.7804783 17.8046804,16.2878947 C17.8400897,16.2228295 17.8816744,16.1632668 17.9283114,16.109538 L17.9278572,13.6061991 Z" id="Combined-Shape" fill="#000000" fill-rule="nonzero"></path>
    </g>
</svg>